# xmcd CD database file
#
# Track frame offsets:
#	183
#	21210
#	36975
#	51883
#	74608
#	87745
#	108583
#	133483
#	155275
#	176373
#	190775
#
# Disc length: 2726 seconds
#
# Revision: 0
# Processed by: cddbd v1.4PL0 Copyright (c) Steve Scherf et al.
# Submitted via: CDex 1.50
#
DISCID=9f0aa40b
DTITLE=ALLAN MIKUSEK - ALLAN
DYEAR=1992
DGENRE=Country
TTITLE0=Ocean slz
TTITLE1=Tak uz chod
TTITLE2=Big Star Of Moon
TTITLE3=Posledny ton
TTITLE4=Koncert
TTITLE5=Poznam ta malo
TTITLE6=Dazd
TTITLE7=Co s tym?
TTITLE8=Svet caka na nas
TTITLE9=Uspavanka
TTITLE10=Country Music
EXTD=YEAR: 1992
EXTT0=
EXTT1=
EXTT2=
EXTT3=
EXTT4=
EXTT5=
EXTT6=
EXTT7=
EXTT8=
EXTT9=
EXTT10=
PLAYORDER=
